<svg xmlns="http://www.w3.org/2000/svg" viewBox="0 0 32 32" fill="none">
  <defs>
    <linearGradient id="grad" x1="0%" y1="0%" x2="100%" y2="100%">
      <stop offset="0%" style="stop-color:#8B5CF6;stop-opacity:1" />
      <stop offset="100%" style="stop-color:#3B82F6;stop-opacity:1" />
    </linearGradient>
  </defs>
  
  <!-- Background circle -->
  <circle cx="16" cy="16" r="15" fill="url(#grad)"/>
  
  <!-- Book icon -->
  <path d="M8 6h12c1.1 0 2 .9 2 2v16c0 1.1-.9 2-2 2H8c-1.1 0-2-.9-2-2V8c0-1.1.9-2 2-2z" fill="white" fill-opacity="0.9"/>
  
  <!-- Quiz lines -->
  <rect x="10" y="10" width="8" height="1.5" rx="0.75" fill="url(#grad)"/>
  <rect x="10" y="13" width="6" height="1.5" rx="0.75" fill="url(#grad)"/>
  <rect x="10" y="16" width="10" height="1.5" rx="0.75" fill="url(#grad)"/>
  <rect x="10" y="19" width="4" height="1.5" rx="0.75" fill="url(#grad)"/>
  
  <!-- Small quiz check mark -->
  <path d="M19 11l1.5 1.5L23 10" stroke="white" stroke-width="1.5" fill="none" stroke-linecap="round" stroke-linejoin="round"/>
</svg>
